<svg width="43" height="40" viewBox="0 0 43 40" fill="none" xmlns="http://www.w3.org/2000/svg">
    <path d="M17.4461 9.50809C17.4769 9.10809 17.5384 8.70809 17.5692 8.30809C17.6 7.90809 17.6307 7.50809 17.6615 7.10809C17.6923 6.95424 17.6923 6.76963 17.9384 6.76963C19.8769 6.76963 21.8461 6.76963 23.8769 6.76963C23.8769 7.01578 23.8769 7.23117 23.8769 7.47732C23.8154 9.32347 23.7538 11.1696 23.723 13.0158C23.6923 17.6619 23.723 22.3081 23.6923 26.9542C23.6923 29.1388 23.4461 31.3235 22.6769 33.385C21.4769 36.5542 19.1384 38.4004 15.9384 39.2619C13.9077 39.8158 11.8461 39.9696 9.75382 39.8773C7.69228 39.785 5.69228 39.4773 3.75382 38.7388C3.38459 38.585 3.01535 38.4312 2.64612 38.2465C2.55382 38.1542 2.46151 37.9388 2.49228 37.8465C2.92305 36.1542 3.35382 34.4927 3.81535 32.8004C3.81535 32.7696 3.84612 32.7696 3.81535 32.8004C4.86151 33.1696 5.84612 33.6004 6.89228 33.9081C8.3692 34.3696 9.90766 34.5542 11.4769 34.4004C14.1846 34.1235 16.1538 32.585 16.5538 29.6312C16.6769 28.7696 16.6461 27.8773 16.6769 26.985C16.6769 26.8927 16.6461 26.8004 16.6154 26.6158C16.4615 26.8004 16.3384 26.9235 16.2461 27.0465C14.9538 28.6158 13.2923 29.4465 11.2923 29.6619C5.99997 30.2158 2.18459 26.8927 0.953816 22.4004C-0.0615688 18.5235 0.215354 14.7696 2.24612 11.2927C3.78459 8.61578 6.12305 6.95424 9.1692 6.4004C10.6154 6.12348 12.0615 6.18501 13.4769 6.58501C14.9846 7.01578 16.1538 7.87732 17.0769 9.13886C17.1692 9.26194 17.2615 9.38501 17.3538 9.50809C17.3846 9.50809 17.4154 9.50809 17.4461 9.50809ZM16.4923 18.0004C16.523 18.0004 16.5538 18.0004 16.5538 18.0004C16.5538 17.2927 16.5846 16.585 16.5538 15.9081C16.523 15.4465 16.4615 14.985 16.3384 14.5235C15.6615 12.3696 13.7538 11.2619 11.6 11.7235C9.99997 12.0619 8.98459 13.1696 8.3692 14.6158C7.75382 16.0927 7.59997 17.6312 7.75382 19.2312C7.87689 20.4619 8.21535 21.6004 8.95382 22.6158C9.99997 24.0619 11.7846 24.7389 13.5077 24.3081C15.1077 23.9081 16.3384 22.5542 16.523 20.7389C16.5538 19.8465 16.4923 18.9235 16.4923 18.0004Z" fill="#6B6B6B"/>
    <path d="M30.5845 12.0002C29.6307 12.0002 25.4461 12.0002 24.5538 12.0002C24.2769 12.0002 24.1538 11.9387 24.1845 11.631C24.1845 10.1233 24.1845 8.6156 24.1845 7.10791C24.1845 6.83098 24.2769 6.73867 24.5538 6.73867C25.4461 6.76944 29.6307 6.73867 30.5845 6.73867C30.5845 6.58483 30.5845 6.43098 30.5845 6.27714C30.5845 4.86175 30.5845 3.44637 30.5845 2.03098C30.5845 1.84637 30.5845 1.69252 30.8307 1.63098C32.9845 1.13868 35.1384 0.646368 37.323 0.15406C37.4153 0.123291 37.4768 0.123291 37.6307 0.123291C37.6307 2.30791 37.6307 4.49252 37.6307 6.70791C39.3538 6.70791 41.0461 6.70791 42.7692 6.70791C42.7692 8.46175 42.7692 10.1848 42.7692 11.9694C41.0768 11.9694 39.3845 11.9694 37.6615 11.9694C37.6615 12.1233 37.6307 12.2464 37.6307 12.3694C37.6307 15.2617 37.5999 18.1541 37.6615 21.0464C37.6615 21.7233 37.8153 22.4002 37.9999 23.0156C38.3076 24.0002 39.1076 24.4617 40.123 24.4925C40.923 24.5233 41.723 24.4617 42.5845 24.431C42.5845 24.4925 42.6153 24.5541 42.6153 24.6464C42.6461 26.2464 42.6461 27.8464 42.6768 29.4464C42.6768 29.6925 42.5845 29.8156 42.3692 29.8464C41.5692 30.0002 40.7999 30.1848 39.9692 30.2464C38.6768 30.3694 37.3845 30.4002 36.0922 30.1233C33.323 29.5694 31.5384 27.8464 30.9845 25.0464C30.7692 23.8464 30.6461 22.6464 30.6153 21.4464C30.5538 18.4617 30.5845 15.4771 30.5845 12.4925C30.5845 12.3387 30.5845 12.2156 30.5845 12.0002Z" fill="#6B6B6B"/>
</svg>
