<svg width="223" height="48" xmlns="http://www.w3.org/2000/svg"><g fill="none"><path d="M15.74 38.735c-1.005 0-2.01-.558-2.568-1.451L.67 15.74a3.083 3.083 0 011.116-4.13 3.083 3.083 0 014.13 1.116L18.42 34.158a3.083 3.083 0 01-1.117 4.13c-.558.335-1.004.447-1.562.447z" fill="#F69220"/><path d="M47.219 27.014c0-1.563-.559-3.014-1.452-4.577-1.34-2.456-2.902-4.018-5.023-5.023-1.786-.893-3.795-1.34-5.804-1.116.67-1.451 1.116-2.903 1.227-4.465.224-2.233-.558-4.242-1.897-6.698-.893-1.563-2.01-2.68-3.237-3.572C29.693.78 28.353.223 26.79.112c-1.563-.112-3.126 0-4.8.335-.558.111-1.117.334-1.675.446l-.67.335c-1.004.335-3.572 1.786-4.465 2.344L10.828 6.14h-.112a3.553 3.553 0 00-1.228 4.688c.67 1.116 1.786 1.674 2.903 1.674a3.15 3.15 0 001.674-.446h.112l7.032-4.019a7.095 7.095 0 012.01-.67c.67-.111 1.34 0 2.009.112.67.223 1.228.558 1.898 1.005.558.446 1.004 1.004 1.45 1.674.336.67.67 1.34.782 2.121.112.781.112 1.451 0 2.121-.111.67-.335 1.228-.781 1.786-.335.558-.893 1.005-1.451 1.34l-4.242 2.567-1.786 1.005-1.117.67c-1.562.892-2.009 2.79-1.116 4.353.558 1.005 1.675 1.563 2.79 1.563.559 0 1.117-.112 1.564-.447l2.344-1.34 6.028-3.237c.67-.334 1.228-.558 1.897-.558.67 0 1.34.112 1.898.335.67.223 1.228.558 1.786 1.005.558.446 1.005 1.005 1.451 1.674.335.67.558 1.34.67 2.01.112.67.112 1.45-.112 2.12-.111.67-.446 1.228-.893 1.898-.446.558-1.004 1.005-1.674 1.451l-10.381 5.917h-.559l-1.897 1.116-3.684 2.01c-1.563.892-2.233 2.902-1.34 4.464a3.218 3.218 0 002.903 1.786c.558 0 1.116-.111 1.563-.446l8.93-4.8 7.256-3.907a20.307 20.307 0 004.242-3.237c1.227-1.228 2.12-2.568 2.679-3.907.67-1.563 1.004-3.014.893-4.577zm92.428 5.805c-.67 0-1.452 0-2.01-.559-.558-.558-.558-1.34-.558-2.009V13.507c0-.67 0-1.451.558-2.01.558-.557 1.34-.557 2.01-.557h6.25c4.354 0 6.81 2.455 6.81 6.14 0 2.455-1.563 4.018-2.79 4.576 1.339.67 3.013 2.01 3.013 4.911 0 4.13-2.79 6.363-6.697 6.363h-6.586v-.111zm1.786-18.084v5.023h4.241c1.786 0 2.791-1.005 2.791-2.567 0-1.563-1.005-2.568-2.79-2.568h-4.242v.112zm4.465 14.288c1.897 0 2.902-1.228 2.902-2.679 0-1.451-.893-2.679-2.902-2.679h-4.465v5.358h4.465zm13.842-3.013c0 2.12 1.227 3.571 3.572 3.571 1.004 0 2.009-.223 2.79-.893.67-.446 1.005-.558 1.451-.558.782 0 1.563.782 1.563 1.675 0 .781-.67 1.45-1.563 2.009-1.116.781-2.567 1.116-4.353 1.116-3.795 0-7.48-1.674-7.48-8.26 0-5.247 2.792-8.26 7.033-8.26 4.354 0 6.81 3.125 7.033 7.143 0 .67-.112 1.34-.558 1.787-.558.558-1.116.558-1.786.558h-7.702v.111zm5.804-4.466c-.446-1.004-1.34-1.674-2.679-1.674-1.34 0-2.232.67-2.679 1.674-.223.558-.335 1.005-.335 1.786h6.14c-.112-.781-.224-1.228-.447-1.786zm8.149-1.228h-.446c-.782 0-1.005 0-1.34-.223-.447-.223-.781-.67-.781-1.34 0-.558.223-1.116.781-1.339.335-.223.558-.223 1.34-.223h.446V15.07c0-1.005 0-1.34.223-1.786.335-.558.893-1.005 1.786-1.005.782 0 1.451.335 1.786 1.005.224.446.224.781.224 1.786v2.12h1.228c.78 0 1.004 0 1.34.224.446.223.78.67.78 1.34 0 .558-.223 1.116-.78 1.339-.336.223-.56.223-1.34.223h-1.228v7.703c0 .781.223 1.34 1.34 1.45.557 0 .892.112 1.227.224.447.223.781.67.781 1.451 0 .67-.334 1.228-.78 1.451-.336.224-.894.224-1.675.224h-.224c-3.348 0-4.688-2.233-4.688-4.577v-7.926zm10.827 0h-.446c-.781 0-1.004 0-1.34-.223-.446-.223-.78-.67-.78-1.34 0-.558.223-1.116.78-1.339.336-.223.559-.223 1.34-.223h.447V15.07c0-1.005 0-1.34.223-1.786.335-.558.893-1.005 1.786-1.005.782 0 1.451.335 1.786 1.005.224.446.224.781.224 1.786v2.12h1.227c.782 0 1.005 0 1.34.224.446.223.781.67.781 1.34 0 .558-.223 1.116-.781 1.339-.335.223-.558.223-1.34.223h-1.227v7.703c0 .781.223 1.34 1.34 1.45.557 0 .892.112 1.227.224.446.223.781.67.781 1.451 0 .67-.335 1.228-.781 1.451-.335.224-.893.224-1.674.224h-.224c-3.349 0-4.688-2.233-4.688-4.577v-7.926zm12.95 5.694c0 2.12 1.228 3.571 3.572 3.571 1.005 0 2.01-.223 2.79-.893.67-.446 1.005-.558 1.452-.558.781 0 1.563.782 1.563 1.675 0 .781-.67 1.45-1.563 2.009-1.117.781-2.568 1.116-4.354 1.116-3.795 0-7.479-1.674-7.479-8.26 0-5.247 2.79-8.26 7.033-8.26 4.353 0 6.809 3.125 7.032 7.143 0 .67-.111 1.34-.558 1.787-.558.558-1.116.558-1.786.558h-7.702v.111zm5.804-4.466c-.446-1.004-1.34-1.674-2.679-1.674-1.34 0-2.232.67-2.679 1.674-.223.558-.335 1.005-.335 1.786h6.14c-.223-.781-.223-1.228-.447-1.786zm15.07-5.024c1.228 0 2.01.224 2.79.782.559.447 1.006 1.005 1.006 1.675 0 .558-.224 1.116-.559 1.45a2.06 2.06 0 01-1.34.559c-.446 0-.78-.112-1.339-.446-.446-.224-1.004-.447-1.562-.447-1.34 0-2.68.893-2.68 2.902v7.145c0 1.004 0 1.34-.223 1.786-.335.558-.893 1.004-1.786 1.004s-1.451-.335-1.786-1.004c-.223-.447-.223-.782-.223-1.786V19.312c0-1.005 0-1.34.335-1.786.335-.559 1.004-.893 1.674-.893.558 0 1.005.223 1.228.446.335.335.558.67.558 1.228.893-.893 2.344-1.786 3.907-1.786z" fill="#606060"/><g fill="#F69220"><path d="M70.66 27.014l-3.572-7.033v9.824c0 1.004 0 1.34-.335 1.897-.334.558-1.004 1.005-1.897 1.005s-1.563-.447-1.898-1.005c-.223-.558-.335-.893-.335-1.897v-16.41c0-.893.112-1.562.67-2.009.335-.335.893-.558 1.451-.558s.893.112 1.228.335c.447.223.781.781 1.116 1.34l5.47 10.38 5.47-10.38c.223-.559.67-1.005 1.116-1.34.335-.223.782-.335 1.228-.335.558 0 1.005.223 1.451.558.558.558.67 1.116.67 2.01v16.52c0 1.005 0 1.34-.335 1.898-.335.558-1.005 1.005-1.898 1.005s-1.562-.447-1.897-1.005c-.223-.558-.335-.893-.335-1.898v-9.823l-3.237 6.921c-.558 1.005-1.005 1.451-2.01 1.451-1.004 0-1.562-.335-2.12-1.451z"/><path d="M80.484 32.93c-.893 0-1.675-.446-2.01-1.116-.334-.558-.334-.893-.334-1.898v-9.153l-3.238 6.363c-.558 1.004-1.004 1.562-2.232 1.562-1.117 0-1.675-.558-2.233-1.562L67.2 20.763v9.153c0 1.005 0 1.34-.335 1.898-.335.67-1.116 1.116-2.01 1.116-.892 0-1.674-.446-2.008-1.116-.335-.558-.335-1.005-.335-1.898v-16.52c0-.894.111-1.563.67-2.233.446-.447.892-.67 1.562-.67.558 0 1.005.112 1.34.335.558.335.893 1.005 1.116 1.34l5.247 10.046 5.246-10.047c.223-.334.558-1.004 1.116-1.34.335-.222.782-.334 1.34-.334.67 0 1.116.223 1.563.67.558.558.67 1.228.67 2.232v16.521c0 1.005 0 1.34-.335 1.898.111.67-.67 1.116-1.563 1.116zm-2.01-13.618v10.604c0 1.005 0 1.34.224 1.786.335.558 1.004.893 1.674.893.781 0 1.34-.335 1.675-.893.223-.446.223-.781.223-1.786v-16.52c0-.894-.112-1.452-.558-1.898a1.849 1.849 0 00-1.34-.558c-.446 0-.781.111-1.228.334-.335.224-.67.67-1.004 1.228l-5.582 10.605-5.581-10.605c-.335-.558-.67-1.004-1.005-1.228-.335-.223-.67-.334-1.228-.334-.558 0-1.004.223-1.34.558-.446.446-.557 1.116-.557 1.897v16.521c0 1.005 0 1.34.223 1.786.335.558 1.004.893 1.674.893.782 0 1.34-.335 1.675-.893.558-.446.558-.781.558-1.786V19.312l3.907 7.59c.558 1.117 1.004 1.451 1.897 1.451s1.34-.334 1.898-1.45l3.795-7.591zm13.619 13.507c-1.563 0-2.902-.559-3.795-1.452-1.34-1.34-1.675-2.79-1.675-4.576V19.2c0-1.005 0-1.34.224-1.786.334-.558.893-.893 1.674-.893.781 0 1.451.335 1.674.893.224.446.224.781.224 1.786v7.033c0 2.12 1.34 2.902 2.679 2.902 1.228 0 2.679-.67 2.679-2.902V19.2c0-1.005 0-1.34.223-1.786.335-.558.893-.893 1.674-.893.782 0 1.452.335 1.675.893.223.446.223.781.223 1.786v10.716c0 1.005 0 1.34-.335 1.786-.335.558-1.004.893-1.674.893-.558 0-1.005-.223-1.228-.446-.335-.335-.447-.67-.558-1.116-.67 1.227-2.233 1.786-3.684 1.786z"/><path d="M92.093 33.042c-1.563 0-2.902-.558-3.907-1.451-1.116-1.117-1.674-2.568-1.674-4.689v-7.59c0-1.005 0-1.34.223-1.898.335-.67 1.005-1.005 1.898-1.005s1.562.335 1.897 1.005c.223.446.223.893.223 1.898v7.032c0 2.456 1.898 2.68 2.456 2.68s2.456-.224 2.456-2.68v-7.032c0-1.005 0-1.34.223-1.898.335-.67 1.005-1.005 1.898-1.005s1.563.335 1.898 1.005c.223.446.223.893.223 1.898v10.716c0 1.005 0 1.34-.335 1.898-.335.558-1.005 1.004-1.898 1.004a1.849 1.849 0 01-1.34-.558c-.334-.223-.446-.558-.557-.893-.782 1.005-2.233 1.563-3.684 1.563zm-3.349-16.298c-.781 0-1.34.335-1.563.893-.223.335-.223.782-.223 1.675v7.59c0 2.01.447 3.35 1.563 4.354.893.893 2.12 1.34 3.684 1.34 1.45 0 2.902-.559 3.907-1.675l.223-.223.112.335c.111.558.223.781.558 1.116.335.223.67.446 1.116.446.67 0 1.34-.335 1.563-.781.223-.447.223-.67.223-1.674V19.423c0-1.004 0-1.34-.223-1.674-.224-.558-.893-.893-1.563-.893-.67 0-1.34.335-1.563.893-.223.335-.223.781-.223 1.674v7.033c0 2.232-1.451 3.014-2.79 3.014-1.34 0-2.792-.782-2.792-3.014v-7.033c0-1.004 0-1.34-.223-1.674-.558-.67-1.116-1.005-1.786-1.005zm24.67.558c.893.447 1.898 1.228 1.898 2.233 0 .558-.224.893-.559 1.34-.223.334-.78.558-1.227.558-.447 0-.782-.112-1.34-.559-.67-.446-1.116-.67-1.898-.67-.893 0-1.674.336-2.232 1.005-.558.782-.893 1.786-.893 3.46 0 1.675.223 2.791.893 3.573.558.67 1.34 1.005 2.232 1.005.782 0 1.228-.224 1.898-.67.558-.447.893-.558 1.34-.558.446 0 .893.223 1.227.558.335.335.559.781.559 1.34 0 1.004-1.005 1.785-1.898 2.232-.893.558-1.898.781-3.126.781-3.125 0-7.144-1.674-7.144-8.149 0-6.474 3.907-8.148 7.144-8.148 1.228-.112 2.121.111 3.126.67z"/><path d="M110.177 33.042c-1.34 0-3.237-.335-4.912-1.675-1.563-1.45-2.456-3.683-2.456-6.586 0-3.014.782-5.134 2.456-6.586 1.563-1.45 3.572-1.674 4.912-1.674 1.228 0 2.232.223 3.237.781.893.447 2.01 1.228 2.01 2.345 0 .558-.224 1.004-.559 1.45a2.06 2.06 0 01-1.34.559c-.446 0-.892-.112-1.45-.558-.67-.447-1.117-.67-1.787-.67-.893 0-1.562.335-2.12 1.005-.559.781-.894 1.786-.894 3.348 0 1.675.224 2.68.893 3.46.559.67 1.228 1.006 2.121 1.006.67 0 1.228-.224 1.786-.67.559-.335.893-.67 1.452-.67a2.06 2.06 0 011.34.558c.446.447.557.893.557 1.451 0 .893-.67 1.675-2.009 2.456-1.005.447-1.898.67-3.237.67zm.111-16.298c-2.12 0-6.92.782-6.92 7.926 0 7.256 4.8 8.037 6.92 8.037 1.228 0 2.121-.223 3.014-.781 1.228-.67 1.786-1.34 1.786-2.121 0-.447-.223-.782-.558-1.228a1.705 1.705 0 00-1.116-.447c-.447 0-.781.112-1.228.558-.67.559-1.228.67-2.01.67-1.004 0-1.785-.335-2.343-1.116-.67-.782-.893-1.898-.893-3.572 0-1.675.334-2.79.893-3.572.558-.67 1.34-1.117 2.344-1.117.893 0 1.34.224 2.009.67.558.335.893.558 1.228.558.446 0 .781-.223 1.116-.446.335-.335.558-.782.558-1.228 0-1.005-1.116-1.786-1.786-2.121-.893-.447-1.786-.67-3.014-.67zm20.763 15.07c-.335.558-.893.893-1.674.893-.782 0-1.451-.335-1.675-.893-.223-.447-.223-.781-.223-1.786v-7.033c0-2.12-1.34-2.902-2.679-2.902-1.34 0-2.68.67-2.68 2.902v7.033c0 1.005 0 1.34-.222 1.786-.335.558-.893.893-1.675.893-.781 0-1.45-.335-1.674-.893-.223-.447-.223-.781-.223-1.786V13.507c0-1.005 0-1.34.223-1.786.335-.558.893-.893 1.674-.893.782 0 1.451.335 1.675.893.223.446.223.781.223 1.786v4.688c1.005-1.004 2.12-1.674 3.907-1.674 1.563 0 2.902.558 3.795 1.451 1.34 1.34 1.675 2.79 1.675 4.577v7.59c-.112.894-.224 1.228-.447 1.675z"/><path d="M129.377 32.93c-.893 0-1.563-.335-1.898-1.004-.223-.447-.223-.893-.223-1.898v-7.033c0-2.455-1.898-2.679-2.456-2.679s-2.456.224-2.456 2.68v7.032c0 1.005 0 1.34-.223 1.898-.335.67-1.005 1.004-1.898 1.004s-1.563-.335-1.897-1.004c-.224-.447-.224-.893-.224-1.898V13.507c0-1.005 0-1.34.224-1.898.334-.67 1.004-1.004 1.897-1.004s1.563.335 1.898 1.004c.223.447.223.893.223 1.898v4.353c1.116-1.004 2.233-1.45 3.684-1.45 1.563 0 2.902.557 3.907 1.45 1.116 1.117 1.674 2.568 1.674 4.689v7.59c0 1.005 0 1.34-.223 1.898-.446.558-1.116.893-2.01.893zM124.8 19.981c1.34 0 2.79.782 2.79 3.014v7.033c0 1.005 0 1.34.224 1.674.223.558.893.893 1.563.893.67 0 1.34-.335 1.563-.893.223-.335.223-.781.223-1.674v-7.59c0-2.01-.447-3.35-1.563-4.354-.893-.893-2.12-1.34-3.684-1.34-1.563 0-2.679.447-3.795 1.563l-.335.335v-5.135c0-1.005 0-1.34-.223-1.674-.223-.559-.893-.893-1.563-.893-.781 0-1.34.334-1.563.893-.223.334-.223.781-.223 1.674V30.14c0 1.004 0 1.34.223 1.674.223.558.893.893 1.563.893.67 0 1.34-.335 1.563-.893.223-.335.223-.781.223-1.674v-7.033c.112-2.344 1.563-3.126 3.014-3.126z"/></g></g></svg>
