<svg xmlns="http://www.w3.org/2000/svg" viewBox="0 0 500 317"><defs><style>.cls-1{fill:#ec028b;}.cls-2{fill:none;}</style></defs><title>NEOSURF</title><g id="Layer_2" data-name="Layer 2"><g id="Layer_1-2" data-name="Layer 1"><path class="cls-1" d="M60.2,150.79v53H37.64a1.7,1.7,0,0,1-.12-1V124.61a12.77,12.77,0,0,1,1.5-6.7,12.59,12.59,0,0,1,10.5-6.42,20.86,20.86,0,0,1,7.12.62,14.87,14.87,0,0,1,9,7.19c.58,1,1.1,2,1.61,3l14.06,28c1.65,3.29,3.33,6.58,5,9.87.14.26.19.6.61.79V113h22.52c.26.22.13.55.13.85q0,39.13,0,78.27a13.5,13.5,0,0,1-3.75,9.75,11.8,11.8,0,0,1-16.22.82,26.69,26.69,0,0,1-5.77-7.26c-2.11-3.5-3.87-7.18-5.75-10.8q-8.67-16.67-17.33-33.32C60.62,151.1,60.6,150.82,60.2,150.79Z"/><path class="cls-1" d="M192.65,172.42c-.24-15.08,10.91-29.71,27.06-32.73,9.09-1.7,17.4.51,24.76,6.07a32.37,32.37,0,0,1,12.46,18.87,33.39,33.39,0,0,1-25.61,40.26,30.16,30.16,0,0,1-21-3.2,33.46,33.46,0,0,1-16.09-19.09A29.75,29.75,0,0,1,192.65,172.42Zm45.18.88c0-4.92-1.36-8.36-4.3-11.11a12.21,12.21,0,0,0-15.48-.89,14.05,14.05,0,0,0-2.81,19.09c3.83,5.26,10.38,6.86,15.86,3.76A12.65,12.65,0,0,0,237.83,173.3Z"/><path class="cls-1" d="M172.72,173.12l14.87,7.6a34.52,34.52,0,0,1-2.4,5,39.78,39.78,0,0,1-16.25,15.81,34.66,34.66,0,0,1-12.89,3.83,31.94,31.94,0,0,1-12.34-1.14,32.37,32.37,0,0,1-11.89-6.53,33.49,33.49,0,0,1-10.4-15.71,31.45,31.45,0,0,1-1.32-7.28,33.46,33.46,0,0,1,27.11-35c9.65-1.65,18.5.47,26.16,6.77a42.82,42.82,0,0,1,10.14,12.72c-.59.75-29.16,20.56-31.32,21.72l-7.91-12.45c5.6-3.76,11.23-7.36,16.89-11.14a10.13,10.13,0,0,0-3.7-1.67,13.56,13.56,0,0,0-7.55-.1,12.17,12.17,0,0,0-6.74,5.25,18.23,18.23,0,0,0-3.09,10.93,16.86,16.86,0,0,0,4.6,11.32,12.43,12.43,0,0,0,11,4.11,18.85,18.85,0,0,0,10.32-5,25.21,25.21,0,0,0,6.42-8.64A4.48,4.48,0,0,1,172.72,173.12Z"/><path class="cls-1" d="M317.34,140.82h19.9v1.32q0,17.24,0,34.48a14.24,14.24,0,0,0,.46,3.61,6.88,6.88,0,0,0,13.45,0,14.17,14.17,0,0,0,.45-3.61V140.83h19.76c.28.26.16.59.16.89,0,12.2.05,24.4,0,36.6a29.42,29.42,0,0,1-3.92,15,23.4,23.4,0,0,1-14.72,11.16,32.36,32.36,0,0,1-17,0c-8.46-2.3-14-7.79-16.83-16a31.12,31.12,0,0,1-1.72-10.17q0-18.3,0-36.6C317.31,141.39,317.33,141.15,317.34,140.82Z"/><path class="cls-1" d="M425.7,203.81a2.76,2.76,0,0,1-.12-1.32q0-33.59,0-67.18a21.58,21.58,0,0,1,14.16-20.48,29.17,29.17,0,0,1,10.37-1.9c4.09,0,8.18,0,12.36,0v18.84a2.3,2.3,0,0,1-1.18.12h-8a11.06,11.06,0,0,0-2.91.37,4.52,4.52,0,0,0-3,2.61,13.26,13.26,0,0,0-.94,5.36H462.5v19H446.4v44.63Z"/><path class="cls-1" d="M264.22,203.87V186.32a2.47,2.47,0,0,1,1.33-.14h17.7a8,8,0,0,0,2.58-.23,2.56,2.56,0,0,0,.88-4.52,9.57,9.57,0,0,0-2.34-1.35c-2.86-1.28-5.74-2.51-8.59-3.83a20.59,20.59,0,0,1-7.56-5.88,14.85,14.85,0,0,1-2.89-6.12,23,23,0,0,1-.28-9.24,15.64,15.64,0,0,1,7.81-10.95,21.74,21.74,0,0,1,11.29-3.25c7-.05,14,0,21.09,0v16.77a4,4,0,0,1-1.25.06H289.7a10.08,10.08,0,0,0-2,.21,3.94,3.94,0,0,0-1.9.9,2.07,2.07,0,0,0-.08,3.5,8.77,8.77,0,0,0,2.18,1.39q4.29,2.07,8.6,4.1a30.59,30.59,0,0,1,8.19,5.48,13.75,13.75,0,0,1,4.34,9.16,22.42,22.42,0,0,1-1.63,10.73c-2.28,5.23-6.41,8.3-11.8,9.8a28,28,0,0,1-7.68,1c-7.44,0-14.88,0-22.32,0Z"/><path class="cls-1" d="M381.72,140.8h18v10.52a1.15,1.15,0,0,0,.54-.76,19.63,19.63,0,0,1,2.89-5.1,11,11,0,0,1,5.36-3.47,30.9,30.9,0,0,1,9.61-1.21V159.7c-1.8.15-3.6.28-5.38.46a18.89,18.89,0,0,0-4.92,1.12,7.44,7.44,0,0,0-5,6.32,49.51,49.51,0,0,0-.45,7.4v28.87h-20.7Z"/><rect class="cls-2" width="500" height="317"/></g></g></svg>