<svg width="297" height="48" xmlns="http://www.w3.org/2000/svg"><g fill="none" fill-rule="evenodd"><path d="M52.797 21.542c-.033-.978-.528-1.483-1.492-1.516h-5.137c-1.218.069-1.844.69-1.875 1.858v8.608c.031 1.206.725 1.82 2.077 1.856h4.707c.49 0 .897-.17 1.221-.515.339-.259.5-.592.5-1.005v-9.286zm-15.1-1.222c.033-2.153.548-3.79 1.547-4.909.523-.468 1.179-.86 1.975-1.185.827-.345 1.629-.512 2.407-.512h9.431c4.16.033 6.275 2.152 6.343 6.361V33.03c-.032 1.494-.66 2.79-1.876 3.876-1.201 1.139-2.639 1.72-4.311 1.754h-8.92V48h-6.597V20.32zM71.71 31.235c0 .363.177.651.527.866.31.26.701.394 1.196.394H78.5c1.146 0 1.74-.417 1.773-1.26V29.46c0-.969-.605-1.458-1.822-1.458h-5.02c-.658 0-1.115.102-1.37.297-.234.23-.353.684-.353 1.357v1.58zm8.564-9.784c.033-.952-.556-1.406-1.775-1.375H65.212v-6.362h14.96c4.357.066 6.57 2.044 6.643 5.944v13.308c-.037 1.684-.585 3.07-1.65 4.174-1.115 1.143-2.55 1.717-4.31 1.717H71.81c-4.4-.035-6.631-1.92-6.7-5.67v-5.135c.034-3.919 2.167-5.91 6.388-5.978h8.775v-.623zm24.352 20.237a2.23 2.23 0 001.35-.52c.356-.292.534-.628.534-1.009V38.66h-8.492c-1.109 0-1.994-.13-2.655-.39-.697-.238-1.394-.68-2.092-1.307-.664-.665-1.141-1.361-1.43-2.088-.303-.664-.456-1.51-.456-2.527V13.714h6.633v16.634c0 1.334.588 2 1.778 2h4.682c.557 0 1.041-.17 1.445-.515.393-.291.587-.638.587-1.047V13.714h6.578v27.49c-.036 2.033-.6 3.662-1.685 4.897-1.104 1.236-2.611 1.867-4.534 1.899H91.385v-6.312h13.241m13.032-9.193h11.327c1.037-.035 1.575-.44 1.607-1.214v-.573c0-.164-.051-.348-.15-.546-.253-.48-.564-.72-.933-.72h-5.616c-1.667-.03-3.09-.59-4.285-1.67-1.208-.996-1.828-2.223-1.863-3.663v-4.744c.066-3.701 2.13-5.585 6.195-5.65h13.137v6.36h-11.13c-1.307 0-1.963.391-1.963 1.168v.617c0 .807.672 1.211 2.012 1.211h5.598c1.493.034 2.763.59 3.824 1.675 1.07 1.093 1.625 2.393 1.659 3.902v4.641c-.034 1.303-.653 2.604-1.844 3.902-.58.637-1.174 1.075-1.768 1.323-.616.228-1.45.343-2.518.343h-13.29v-6.362m30.584-1.26c0 .363.178.651.535.866.307.26.7.394 1.189.394h5.078c1.147 0 1.738-.417 1.772-1.26V29.46c0-.969-.612-1.458-1.827-1.458h-5.023c-.659 0-1.113.102-1.366.297-.235.23-.358.684-.358 1.357v1.58zm8.574-9.784c.028-.952-.561-1.406-1.781-1.375h-13.288v-6.362h14.967c4.355.066 6.568 2.044 6.637 5.944v13.308c-.035 1.684-.588 3.07-1.648 4.174-1.108 1.143-2.546 1.717-4.309 1.717h-9.051c-4.4-.035-6.634-1.92-6.696-5.67v-5.135c.03-3.919 2.16-5.91 6.388-5.978h8.781v-.623zm12.247-11.166c.04-1.706.724-3.076 2.064-4.104 1.3-1.043 3.005-1.58 5.114-1.61h4.245v6.108h-2.57c-1.412.03-2.134.652-2.164 1.853v1.34h4.734v6.327h-4.734v18.658h-6.69V10.285m29.799 11.048v-.149a.965.965 0 00-.429-.811c-.309-.2-.688-.297-1.141-.297h-4.62c-.593 0-1.071.154-1.441.471-.46.294-.693.68-.693 1.156v2.554l8.324-2.924zm-8.219 8.992v.396c0 .51.142.914.43 1.207.209.376.49.567.864.567h13.636v6.362h-14.5c-1.323 0-2.352-.115-3.081-.347a5.694 5.694 0 01-2.136-1.199c-.73-.674-1.226-1.36-1.477-2.065-.273-.735-.41-1.711-.41-2.927l-.055-12.733c.074-3.848 2.228-5.806 6.46-5.872h8.948c4.134.066 6.229 2.093 6.295 6.088v5.03l-14.974 5.493zm28.389 8.532c-.99 0-1.894-.085-2.714-.242-.859-.132-1.715-.507-2.59-1.139-.898-.736-1.518-1.56-1.858-2.471-.36-.895-.534-1.91-.534-3.051V20.158c-.036-.961.067-1.807.305-2.538.221-.733.682-1.447 1.38-2.148.796-.736 1.608-1.225 2.467-1.465.824-.195 1.754-.293 2.796-.293h10.021v1.477h-9.79c-1.727 0-3.086.335-4.08 1.004-1.016.73-1.533 1.988-1.533 3.76V31.76c0 .83.134 1.637.403 2.417.274.766.73 1.438 1.388 2.025.711.51 1.422.827 2.113.956.723.15 1.495.22 2.316.22h9.342v1.48h-9.432m34.117-15.305h-13.363c-1.6.035-2.852.492-3.756 1.374-.934.894-1.396 2.123-1.396 3.682v3.765c0 .73.082 1.397.252 1.998.168.632.587 1.196 1.25 1.682 1.154.885 2.433 1.322 3.83 1.322h8.096c3.382-.032 5.087-1.682 5.087-4.956v-8.867zm1.587 8.5c0 .948-.078 1.783-.21 2.516-.216.798-.659 1.566-1.33 2.297-1.395 1.36-3.126 2.025-5.19 1.99h-7.945c-2.063 0-3.737-.57-5.034-1.706-1.324-1.122-1.994-2.682-1.994-4.683v-3.801c.067-4.292 2.377-6.488 6.928-6.588h13.236v-1.665c0-1.37-.429-2.57-1.283-3.603-.542-.671-1.183-1.119-1.911-1.351-.736-.177-1.562-.268-2.483-.268h-14.44v-1.477h13.69c1.25 0 2.383.081 3.406.242a4.147 4.147 0 011.45.56c.467.263.905.644 1.31 1.145 1.228 1.466 1.826 3.155 1.8 5.059v11.332zm15.098-16.862c-3.73.065-5.567 1.936-5.497 5.618v18.048h-1.603V20.815c-.074-4.736 2.377-7.1 7.357-7.1h1.78v1.476h-2.037m25.598.109h-12.424c-.894 0-1.697.093-2.42.27-.756.16-1.487.588-2.17 1.286-.656.635-1.068 1.265-1.242 1.895-.23.635-.334 1.397-.296 2.286v11.452c0 1.904.59 3.2 1.788 3.896a7.46 7.46 0 001.968.727c.725.18 1.532.269 2.424.269h5.43c2.029 0 3.689-.436 4.964-1.316 1.283-.824 1.935-2.248 1.978-4.276v-16.49zM297 31.89c-.14 4.74-2.827 7.063-8.062 6.964h-5.824c-1.23 0-2.33-.1-3.302-.291-1-.242-1.96-.812-2.882-1.7-.693-.798-1.14-1.604-1.318-2.432-.24-.824-.346-1.742-.309-2.745V21c.069-4.814 2.666-7.207 7.8-7.17h12.327V5.714H297V31.89z" fill="#058CCE"/><path d="M2.07 12.49a8.175 8.175 0 011.514-.48c.927-4.203 4.85-7.357 9.552-7.357 4.704 0 8.628 3.158 9.554 7.361 1.444.26 2.638.815 3.568 1.64.038-.808.004-1.586-.096-2.317C25.565 4.985 19.955 0 13.116 0 6.073 0 .34 5.3.042 11.923a16.846 16.846 0 00-.032 1.791 8.343 8.343 0 012.06-1.224m19.217 1.224H5.727c-.75 0-1.525.168-2.324.516-.77.327-1.403.723-1.908 1.194C.528 16.553.034 18.202 0 20.373v11.822c.034 2.176.528 3.823 1.495 4.945.505.48 1.138.875 1.908 1.205.8.34 1.575.512 2.324.512h15.56c4.019-.035 6.064-2.177 6.128-6.413V20.125c-.064-4.242-2.11-6.377-6.128-6.41" fill="#E2001A"/></g></svg>
