<svg width="2308" height="521" viewBox="0 0 2308 521" fill="none" xmlns="http://www.w3.org/2000/svg">
<path fill-rule="evenodd" clip-rule="evenodd" d="M237 1.005C291.628 4.362 332.574 19.607 361.879 47.5C373.943 58.982 381.776 69.542 388.546 83.448C398.985 104.893 402.485 122.791 401.656 150.5C401.068 170.178 399.38 180.351 394.047 196.359C380.452 237.167 346.449 269.523 295.745 289.902C285.927 293.848 285.126 294.367 286.088 296.164C286.665 297.242 314.16 345.001 347.189 402.295C380.218 459.589 407.462 507.039 407.731 507.741C408.125 508.768 397.429 508.967 352.908 508.759L297.596 508.5L238.548 405.779L179.5 303.059L138.25 303.029L97 303V406V509H48.5H0V254.5V0L110.75 0.026001C171.663 0.040001 228.475 0.481005 237 1.005ZM1696 259.5V509H1649.5H1603V260.167C1603 123.308 1603.3 11.033 1603.67 10.667C1604.03 10.3 1624.96 10 1650.17 10H1696V259.5ZM2228.76 100.25L2229.02 149H2268.51H2308V186V223H2268.48H2228.96L2229.23 319.75L2229.5 416.5L2231.79 420.791C2234.78 426.391 2240.85 432.205 2246.76 435.146C2251.35 437.425 2252.41 437.51 2279.75 437.807L2308 438.114V479.162V520.21L2269.25 519.726C2235.21 519.301 2229.41 518.997 2221.5 517.229C2176.33 507.128 2143.35 471.717 2137.07 426.566C2136.34 421.307 2136 360.363 2136 234.918V50.98L2182.25 51.24L2228.5 51.5L2228.76 100.25ZM97 152.1V219.201L166.75 218.736C226.119 218.34 237.914 218.022 246 216.595C286.004 209.534 305.038 188.718 304.983 152.09C304.95 130.342 300.551 118.324 288.095 105.96C279.567 97.493 272.642 93.616 259 89.67C244.19 85.386 236.509 85.006 164.75 85.003L97 85V152.1ZM638.877 141.909C673.923 148.566 704.545 165.071 728.57 190.252C741.871 204.193 750.622 216.654 758.943 233.5C773.358 262.682 778 285.971 778 329.106V351H638H498L498.022 353.25C498.034 354.487 498.892 359.325 499.93 364C510.132 409.975 544.061 438.389 591.5 440.686C635.96 442.839 670.077 423.522 693.74 382.797L698.284 374.976L702.392 377.363C704.651 378.676 720.133 387.492 736.797 396.954L767.093 414.159L761.994 423.703C738.342 467.969 702.991 497.883 658.829 511.003C619.771 522.606 570.908 522.19 533.85 509.938C484.465 493.61 441.768 453.604 422.955 406.032C413.217 381.408 409.571 360.625 409.529 329.5C409.483 295.147 414.203 271.39 426.372 244.721C449.063 194.99 501.13 154.386 556.74 143.053C573.72 139.593 579.754 139.132 604 139.445C622.973 139.69 629.691 140.165 638.877 141.909ZM1398 141.917C1434.82 148.813 1463.39 161.812 1491.89 184.642C1535.63 219.679 1556.9 266.719 1556.98 328.576C1557.08 398.645 1530.7 449.487 1475.28 486.088C1449.72 502.967 1418.47 514.093 1385.5 518.053C1370.92 519.804 1340.87 519.555 1326.5 517.564C1274.4 510.345 1228.42 485.628 1198.01 448.5C1169.79 414.027 1156.46 366.597 1160.01 313.258C1163.5 260.908 1182.76 219.967 1218.26 189.451C1249.74 162.401 1285.26 146.227 1325.5 140.625C1342.17 138.303 1382.55 139.023 1398 141.917ZM921.951 270.239C947.082 336.645 967.901 391.235 968.216 391.549C968.531 391.864 969.525 390.182 970.425 387.811C971.325 385.44 991.985 330.85 1016.34 266.5L1060.61 149.5L1109.81 149.241C1136.86 149.098 1159 149.113 1159 149.274C1159 149.435 1125.96 230.327 1085.58 329.033L1012.16 508.5H968.477H924.798L851.399 329.086C811.03 230.409 778 149.517 778 149.327C778 149.137 800.108 149.098 827.129 149.241L876.258 149.5L921.951 270.239ZM1842.02 249.75C1842.03 309.461 1842.44 354.37 1843.03 360C1846.52 393.301 1863.09 415.249 1891.24 423.867C1900.9 426.824 1916.67 428.225 1927.58 427.096C1948.05 424.978 1960.36 419.629 1972.62 407.522C1979.45 400.78 1981.47 397.985 1985.28 390C1994.06 371.599 1993.42 381.571 1993.75 258.25L1994.05 149H2040.53H2087V261.949C2087 356.587 2086.76 376.752 2085.5 386.338C2077.65 446.199 2041.6 490.707 1985.86 509.358C1965.03 516.326 1945.78 519.16 1919 519.2C1892.19 519.24 1873.5 516.615 1852 509.791C1802.96 494.225 1767.74 456.892 1754.99 406.97C1750.1 387.798 1750.04 386.084 1750.02 263.75L1750 149H1796H1842L1842.02 249.75ZM585.906 209.034C556.52 212.469 529.45 229.304 512.005 254.993C508.028 260.849 499.813 277.13 498.503 281.75L497.865 284H595.452H693.038L692.391 281.25C685.367 251.414 669.885 230.851 645.5 218.968C633.559 213.15 623.356 210.359 609.076 209.005C597.446 207.902 595.569 207.904 585.906 209.034ZM1344.51 225.107C1321.32 227.547 1300.63 237.594 1282.94 255C1265.14 272.507 1256.49 291.17 1253.91 317.577C1249.38 363.917 1270.17 403.184 1309.65 422.884C1338.04 437.051 1374.83 437.304 1404.63 423.536C1425.86 413.727 1444.84 394.869 1454.15 374.328C1464.21 352.144 1465.82 317.989 1457.94 294.049C1449.56 268.59 1429.75 246.793 1403.87 234.559C1392.8 229.324 1382.06 226.387 1369 225.025C1358.3 223.91 1355.81 223.918 1344.51 225.107Z" fill="#8989A1"/>
</svg>
